<svg width="8" height="9" viewBox="0 0 8 9" fill="none" xmlns="http://www.w3.org/2000/svg">
    <path d="M0.38 4.39C0.38 6.61 2.05 8.13 4.13 8.13C6.2 8.13 7.87 6.61 7.87 4.39C7.87 2.16 6.2 0.62 4.13 0.62C2.05 0.62 0.38 2.16 0.38 4.39ZM1.21 4.39C1.21 2.59 2.49 1.38 4.13 1.38C5.8 1.38 7.04 2.59 7.04 4.39C7.04 6.15 5.8 7.38 4.13 7.38C2.49 7.38 1.21 6.15 1.21 4.39ZM3.49 4.82H4.07L4.91 6.25H6.11L5.14 4.66C5.57 4.49 5.87 4.16 5.87 3.56C5.87 2.52 5.08 2.25 4.01 2.25H2.41V6.25H3.49V4.82ZM4.79 3.56C4.79 3.8 4.64 3.99 4.28 3.99H3.49V3.09H4.28C4.64 3.09 4.79 3.33 4.79 3.56Z" fill="#2B2B2B"/>
</svg>
