<svg width="32" height="22" viewBox="0 0 32 22" fill="none" xmlns="http://www.w3.org/2000/svg">
<path d="M25.9861 7.87314L25.4871 7.90404L25.5096 8.2676L25.8625 8.35763L25.9861 7.87314ZM12.4237 4.48446L12.1204 4.88201L12.5591 5.2166L12.8491 4.74725L12.4237 4.48446ZM6.00534 7.87533L6.12957 8.35965L6.52565 8.25805L6.50468 7.84968L6.00534 7.87533ZM18.667 1.5C22.2967 1.5 25.2658 4.33033 25.4871 7.90404L26.4852 7.84224C26.2314 3.74454 22.8283 0.5 18.667 0.5V1.5ZM12.8491 4.74725C14.0536 2.79746 16.209 1.5 18.667 1.5V0.5C15.8481 0.5 13.3774 1.98933 11.9983 4.22167L12.8491 4.74725ZM10 4.16683C10.7978 4.16683 11.532 4.43316 12.1204 4.88201L12.7269 4.08691C11.9703 3.50979 11.0245 3.16683 10 3.16683V4.16683ZM6.5 7.66683C6.5 5.73383 8.067 4.16683 10 4.16683V3.16683C7.51472 3.16683 5.5 5.18155 5.5 7.66683H6.5ZM6.50468 7.84968C6.50157 7.78917 6.5 7.72821 6.5 7.66683H5.5C5.5 7.74532 5.50201 7.82338 5.506 7.90097L6.50468 7.84968ZM1.5 14.3333C1.5 11.4588 3.46723 9.04252 6.12957 8.35965L5.88111 7.391C2.78727 8.18456 0.5 10.9912 0.5 14.3333H1.5ZM7.66667 20.5C4.26091 20.5 1.5 17.7391 1.5 14.3333H0.5C0.5 18.2914 3.70863 21.5 7.66667 21.5V20.5ZM24.3333 20.5H7.66667V21.5H24.3333V20.5ZM30.5 14.3333C30.5 17.7391 27.7391 20.5 24.3333 20.5V21.5C28.2914 21.5 31.5 18.2914 31.5 14.3333H30.5ZM25.8625 8.35763C28.5289 9.03774 30.5 11.456 30.5 14.3333H31.5C31.5 10.9879 29.2082 8.17901 26.1097 7.38865L25.8625 8.35763Z" fill="#2B2B2B"/>
</svg>
