<svg class="goodFill" width="32" height="37" viewBox="0 0 32 37" fill="none" xmlns="http://www.w3.org/2000/svg">
<path d="M16 1L1 9.81217M16 1L31 9.81224M16 1V18.25V35.5M1 9.81217V26.6872M1 9.81217L31 26.6872M1 26.6872L16 35.5M1 26.6872L31 9.81224M16 35.5L31 26.6872M31 26.6872V9.81224" stroke="#2B2B2B" stroke-opacity="0.2"/>
<path d="M16 18.2503L18.6251 16.7734M16 18.2503L13.375 16.7734M16 18.2503V21.2503" stroke="#2B2B2B"/>
<path d="M1 9.8123L3.25 8.49048M1 9.8123V12.2501M1 9.8123L4.75 11.9217" stroke="#2B2B2B"/>
<path d="M1 26.6877L3.25 28.0095M1 26.6877V24.2499M1 26.6877L4.75 24.5783" stroke="#2B2B2B"/>
<path d="M31 9.8123L28.75 8.49048M31 9.8123V12.2501M31 9.8123L27.25 11.9217" stroke="#2B2B2B"/>
<path d="M31 26.6877L28.75 28.0095M31 26.6877V24.2499M31 26.6877L27.25 24.5783" stroke="#2B2B2B"/>
<path d="M16.0001 1V4.75M16.0001 1L13.4468 2.5M16.0001 1L18.5533 2.5" stroke="#2B2B2B"/>
<path d="M16.0001 35.5V31.75M16.0001 35.5L13.4468 34M16.0001 35.5L18.5533 34" stroke="#2B2B2B"/>
</svg>
